<?xml version="1.0" encoding="UTF-8"?>
<svg width="700pt" height="700pt" version="1.1" viewBox="0 0 700 700" xmlns="http://www.w3.org/2000/svg" xmlns:xlink="http://www.w3.org/1999/xlink">
 <defs>
  <symbol id="l" overflow="visible">
   <path d="m37.516-2.25c-1.9297 1.0117-3.9453 1.7734-6.0469 2.2812-2.0938 0.50781-4.2812 0.76562-6.5625 0.76562-6.793 0-12.18-1.8984-16.156-5.7031-3.9688-3.8008-5.9531-8.957-5.9531-15.469 0-6.5195 1.9844-11.68 5.9531-15.484 3.9766-3.8008 9.3633-5.7031 16.156-5.7031 2.2812 0 4.4688 0.25781 6.5625 0.76562 2.1016 0.51172 4.1172 1.2656 6.0469 2.2656v8.4531c-1.9492-1.332-3.8711-2.3047-5.7656-2.9219-1.8984-0.625-3.8906-0.9375-5.9844-0.9375-3.7617 0-6.7188 1.2031-8.875 3.6094-2.1484 2.4062-3.2188 5.7266-3.2188 9.9531 0 4.2109 1.0703 7.5156 3.2188 9.9219 2.1562 2.4062 5.1133 3.6094 8.875 3.6094 2.0938 0 4.0859-0.30469 5.9844-0.92188 1.8945-0.625 3.8164-1.5977 5.7656-2.9219z"/>
  </symbol>
  <symbol id="d" overflow="visible">
   <path d="m27.453-22.281c-0.85547-0.40625-1.7109-0.70312-2.5625-0.89062-0.84375-0.19531-1.6953-0.29688-2.5469-0.29688-2.5234 0-4.4609 0.80859-5.8125 2.4219-1.3555 1.6172-2.0312 3.9297-2.0312 6.9375v14.109h-9.7969v-30.625h9.7969v5.0312c1.25-2.0078 2.6914-3.4727 4.3281-4.3906 1.6328-0.91406 3.5859-1.375 5.8594-1.375 0.33203 0 0.6875 0.015625 1.0625 0.046875 0.38281 0.023438 0.94141 0.078125 1.6719 0.17188z"/>
  </symbol>
  <symbol id="c" overflow="visible">
   <path d="m35.281-15.391v2.7812h-22.891c0.23828 2.3047 1.0664 4.0273 2.4844 5.1719 1.4258 1.1484 3.4141 1.7188 5.9688 1.7188 2.0508 0 4.1562-0.30078 6.3125-0.90625 2.1641-0.61328 4.3906-1.5391 6.6719-2.7812v7.5469c-2.3125 0.875-4.6328 1.5391-6.9531 1.9844-2.3125 0.44531-4.625 0.67188-6.9375 0.67188-5.543 0-9.8516-1.4062-12.922-4.2188-3.0742-2.8203-4.6094-6.7734-4.6094-11.859 0-5 1.5039-8.9258 4.5156-11.781 3.0195-2.8633 7.1758-4.2969 12.469-4.2969 4.8125 0 8.6602 1.4492 11.547 4.3438 2.8945 2.8984 4.3438 6.7734 4.3438 11.625zm-10.062-3.2656c0-1.8516-0.54688-3.3477-1.6406-4.4844-1.0859-1.1445-2.5-1.7188-4.25-1.7188-1.8984 0-3.4375 0.53906-4.625 1.6094-1.1797 1.0625-1.9141 2.5938-2.2031 4.5938z"/>
  </symbol>
  <symbol id="h" overflow="visible">
   <path d="m18.438-13.781c-2.043 0-3.5781 0.35156-4.6094 1.0469-1.0312 0.6875-1.5469 1.7031-1.5469 3.0469 0 1.2422 0.41016 2.2148 1.2344 2.9219 0.83203 0.69922 1.9883 1.0469 3.4688 1.0469 1.8438 0 3.3906-0.66016 4.6406-1.9844 1.2578-1.3203 1.8906-2.9727 1.8906-4.9531v-1.125zm14.953-3.6875v17.469h-9.875v-4.5469c-1.3125 1.8672-2.793 3.2266-4.4375 4.0781-1.6367 0.84375-3.6328 1.2656-5.9844 1.2656-3.168 0-5.7422-0.92578-7.7188-2.7812-1.9805-1.8516-2.9688-4.2539-2.9688-7.2031 0-3.5938 1.2344-6.2266 3.7031-7.9062 2.4688-1.6758 6.3477-2.5156 11.641-2.5156h5.7656v-0.76562c0-1.5508-0.60938-2.6875-1.8281-3.4062s-3.125-1.0781-5.7188-1.0781c-2.0938 0-4.0469 0.21484-5.8594 0.64062-1.8047 0.41797-3.4766 1.043-5.0156 1.875v-7.4688c2.0938-0.50781 4.1953-0.89453 6.3125-1.1562 2.1133-0.25781 4.2266-0.39062 6.3438-0.39062 5.5195 0 9.5039 1.0898 11.953 3.2656 2.457 2.1797 3.6875 5.7188 3.6875 10.625z"/>
  </symbol>
  <symbol id="g" overflow="visible">
   <path d="m15.391-39.328v8.7031h10.094v7h-10.094v12.984c0 1.4297 0.28125 2.3906 0.84375 2.8906 0.57031 0.5 1.6953 0.75 3.375 0.75h5.0312v7h-8.3906c-3.8672 0-6.6055-0.80469-8.2188-2.4219-1.6172-1.6133-2.4219-4.3516-2.4219-8.2188v-12.984h-4.875v-7h4.875v-8.7031z"/>
  </symbol>
  <symbol id="f" overflow="visible">
   <path d="m25.547-26.141v-16.406h9.8438v42.547h-9.8438v-4.4375c-1.3555 1.8125-2.8438 3.1406-4.4688 3.9844-1.6172 0.83203-3.4922 1.25-5.625 1.25-3.7734 0-6.8711-1.5-9.2969-4.5-2.4297-3-3.6406-6.8594-3.6406-11.578 0-4.7266 1.2109-8.5859 3.6406-11.578 2.4258-3 5.5234-4.5 9.2969-4.5 2.1133 0 3.9844 0.42188 5.6094 1.2656 1.6328 0.84375 3.1289 2.1641 4.4844 3.9531zm-6.4531 19.828c2.0938 0 3.6914-0.76562 4.7969-2.2969 1.1016-1.5312 1.6562-3.7539 1.6562-6.6719 0-2.9141-0.55469-5.1406-1.6562-6.6719-1.1055-1.5312-2.7031-2.2969-4.7969-2.2969-2.0859 0-3.6797 0.76562-4.7812 2.2969-1.1055 1.5312-1.6562 3.7578-1.6562 6.6719 0 2.918 0.55078 5.1406 1.6562 6.6719 1.1016 1.5312 2.6953 2.2969 4.7812 2.2969z"/>
  </symbol>
  <symbol id="b" overflow="visible">
   <path d="m21-6.3125c2.0938 0 3.6914-0.76562 4.7969-2.2969 1.1016-1.5312 1.6562-3.7539 1.6562-6.6719 0-2.9141-0.55469-5.1406-1.6562-6.6719-1.1055-1.5312-2.7031-2.2969-4.7969-2.2969s-3.7031 0.77344-4.8281 2.3125c-1.1172 1.5312-1.6719 3.75-1.6719 6.6562 0 2.8984 0.55469 5.1172 1.6719 6.6562 1.125 1.543 2.7344 2.3125 4.8281 2.3125zm-6.5-19.828c1.3438-1.7891 2.832-3.1094 4.4688-3.9531 1.6445-0.84375 3.5352-1.2656 5.6719-1.2656 3.7695 0 6.8672 1.5 9.2969 4.5 2.4258 2.9922 3.6406 6.8516 3.6406 11.578 0 4.7188-1.2148 8.5781-3.6406 11.578-2.4297 3-5.5273 4.5-9.2969 4.5-2.1367 0-4.0273-0.42188-5.6719-1.2656-1.6367-0.85156-3.125-2.1758-4.4688-3.9688v4.4375h-9.7969v-42.547h9.7969z"/>
  </symbol>
  <symbol id="a" overflow="visible">
   <path d="m0.6875-30.625h9.7812l8.2344 20.781 7-20.781h9.7969l-12.891 33.531c-1.293 3.4062-2.8047 5.7852-4.5312 7.1406-1.7188 1.3633-3.9922 2.0469-6.8125 2.0469h-5.6562v-6.4375h3.0625c1.6562 0 2.8594-0.26562 3.6094-0.79688 0.75781-0.52344 1.3516-1.4648 1.7812-2.8281l0.26562-0.85938z"/>
  </symbol>
  <symbol id="e" overflow="visible">
   <path d="m5.1406-40.828h17.469c5.1953 0 9.1875 1.1562 11.969 3.4688 2.7812 2.3047 4.1719 5.5859 4.1719 9.8438 0 4.293-1.3906 7.5898-4.1719 9.8906-2.7812 2.3047-6.7734 3.4531-11.969 3.4531h-6.9375v14.172h-10.531zm10.531 7.625v11.406h5.8281c2.0391 0 3.6133-0.49219 4.7188-1.4844 1.1133-1 1.6719-2.4102 1.6719-4.2344 0-1.8203-0.55859-3.2227-1.6719-4.2031-1.1055-0.98828-2.6797-1.4844-4.7188-1.4844z"/>
  </symbol>
  <symbol id="k" overflow="visible">
   <path d="m19.281-24.359c-2.168 0-3.8242 0.78125-4.9688 2.3438-1.1367 1.5547-1.7031 3.7969-1.7031 6.7344 0 2.9297 0.56641 5.1719 1.7031 6.7344 1.1445 1.5625 2.8008 2.3438 4.9688 2.3438 2.1328 0 3.7656-0.78125 4.8906-2.3438 1.1328-1.5625 1.7031-3.8047 1.7031-6.7344 0-2.9375-0.57031-5.1797-1.7031-6.7344-1.125-1.5625-2.7578-2.3438-4.8906-2.3438zm0-7c5.2695 0 9.3828 1.4219 12.344 4.2656 2.957 2.8438 4.4375 6.7812 4.4375 11.812s-1.4805 8.9688-4.4375 11.812c-2.9609 2.8438-7.0742 4.2656-12.344 4.2656-5.293 0-9.4297-1.4219-12.406-4.2656-2.9805-2.8438-4.4688-6.7812-4.4688-11.812s1.4883-8.9688 4.4688-11.812c2.9766-2.8438 7.1133-4.2656 12.406-4.2656z"/>
  </symbol>
  <symbol id="j" overflow="visible">
   <path d="m33.547-39.547v8.6406c-2.2422-1-4.4297-1.7539-6.5625-2.2656-2.125-0.50781-4.1367-0.76562-6.0312-0.76562-2.5234 0-4.3867 0.35156-5.5938 1.0469-1.1992 0.6875-1.7969 1.7617-1.7969 3.2188 0 1.0938 0.40625 1.9492 1.2188 2.5625 0.8125 0.60547 2.2852 1.125 4.4219 1.5625l4.4844 0.90625c4.5312 0.91797 7.7539 2.3086 9.6719 4.1719 1.9141 1.8555 2.875 4.4961 2.875 7.9219 0 4.5-1.3398 7.8516-4.0156 10.047-2.668 2.1992-6.7461 3.2969-12.234 3.2969-2.5859 0-5.1836-0.25-7.7969-0.75-2.6055-0.48828-5.2109-1.2188-7.8125-2.1875v-8.875c2.6016 1.3867 5.125 2.4297 7.5625 3.125 2.4375 0.69922 4.7852 1.0469 7.0469 1.0469 2.2891 0 4.0469-0.37891 5.2656-1.1406 1.2266-0.76953 1.8438-1.8633 1.8438-3.2812 0-1.2812-0.41797-2.2656-1.25-2.9531-0.83594-0.69531-2.4922-1.3164-4.9688-1.8594l-4.0625-0.90625c-4.0859-0.875-7.0742-2.2656-8.9688-4.1719-1.8867-1.9141-2.8281-4.5-2.8281-7.75 0-4.0625 1.3125-7.1875 3.9375-9.375s6.3984-3.2812 11.328-3.2812c2.2383 0 4.5391 0.17188 6.9062 0.51562 2.375 0.33594 4.8281 0.83594 7.3594 1.5z"/>
  </symbol>
  <symbol id="i" overflow="visible">
   <path d="m33.094-25.547c1.2383-1.8945 2.707-3.3359 4.4062-4.3281 1.707-0.98828 3.582-1.4844 5.625-1.4844 3.5195 0 6.1953 1.0859 8.0312 3.25 1.8438 2.168 2.7656 5.3203 2.7656 9.4531v18.656h-9.8438v-15.969c0.019531-0.23828 0.035156-0.48438 0.046875-0.73438 0.007812-0.25781 0.015625-0.625 0.015625-1.0938 0-2.1758-0.32422-3.75-0.96875-4.7188-0.63672-0.97656-1.6641-1.4688-3.0781-1.4688-1.8672 0-3.3047 0.76562-4.3125 2.2969-1.0117 1.5312-1.5391 3.7461-1.5781 6.6406v15.047h-9.8438v-15.969c0-3.3945-0.29297-5.5781-0.875-6.5469-0.58594-0.97656-1.6211-1.4688-3.1094-1.4688-1.875 0-3.3242 0.77344-4.3438 2.3125-1.0234 1.543-1.5312 3.7461-1.5312 6.6094v15.062h-9.8438v-30.625h9.8438v4.4844c1.1953-1.7266 2.5703-3.0312 4.125-3.9062 1.5625-0.875 3.2852-1.3125 5.1719-1.3125 2.1133 0 3.9766 0.51172 5.5938 1.5312 1.625 1.0234 2.8594 2.4492 3.7031 4.2812z"/>
  </symbol>
 </defs>
 <g>
  <path d="m236.01 100.16c22.516 0 45.031 5.2344 65.629 15.012-5.6719-25.395-32.551-44.598-64.754-44.598-32.027 0-58.734 18.938-64.668 44.07 0.60938-0.26172 1.2227-0.60938 1.832-0.87109 19.723-9.0742 40.582-13.613 61.961-13.613z"/>
  <path d="m199.1 157.06c-15.621 7.1562-29.672 17.105-41.715 29.324 67.09-42.789 180.59-25.215 211.54 68.246 3.4883 1.3945 6.8086 3.2305 9.8633 5.6719-0.44141-114.63-113.42-133.91-179.69-103.24z"/>
  <path d="m193.69 145.19c19.637-9.1641 40.844-13.789 62.746-13.789 27.578 0 54.195 7.5938 77.582 21.555-38.488-36.652-98.703-52.887-154.47-27.316-49.746 22.863-84.391 74.527-84.566 134.66 3.0547-2.4414 6.3711-4.2773 9.8633-5.6719 11.441-34.625 25.008-80.297 88.844-109.43z"/>
  <path d="m182.08 317.84c0.082031 3.7031 0.49219 7.4062 2.0586 11.109 1.6445-3.7031 1.9766-7.4062 2.0586-11.109-0.082031-3.7031-0.41406-7.4062-2.0586-11.109-1.5664 3.7031-1.9766 7.4062-2.0586 11.109z"/>
  <path d="m182.08 276.11c0.082031 3.7031 0.49219 7.4062 2.0586 11.109 1.6445-3.7031 1.9766-7.4062 2.0586-11.109-0.082031-3.7031-0.41406-7.4062-2.0586-11.113-1.5664 3.707-1.9766 7.4102-2.0586 11.113z"/>
  <path d="m168.17 269.28c0.41016 3.9492 1.9727 7.4062 3.7852 10.617 1.8945 3.2109 4.0312 6.1719 7.3242 8.6406-0.49219-4.0312-1.9727-7.4062-3.7852-10.699-1.8906-3.125-4.1133-6.1719-7.3242-8.5586z"/>
  <path d="m189.08 305.41c0.41016 4.0312 1.9766 7.4062 3.7852 10.695 1.8945 3.1289 4.0312 6.1719 7.3242 8.5586-0.49219-3.9492-1.9727-7.4062-3.7852-10.617-1.9766-3.207-4.1133-6.168-7.3242-8.6367z"/>
  <path d="m302.99 279.9c1.8125-3.207 3.293-6.668 3.7852-10.617-3.293 2.3867-5.4336 5.4336-7.3242 8.5586-1.8125 3.293-3.375 6.668-3.7852 10.699 3.2109-2.4688 5.3516-5.4297 7.3242-8.6406z"/>
  <path d="m203.32 305.66c-3.293-1.8125-6.668-3.293-10.699-3.7852 2.3867 3.2109 5.4336 5.4336 8.6406 7.3242 3.2109 1.8125 6.5859 3.293 10.617 3.7852-2.3867-3.2891-5.4336-5.4297-8.5586-7.3242z"/>
  <path d="m171.96 314.05c-1.8086 3.2109-3.375 6.668-3.7852 10.617 3.207-2.3867 5.4297-5.4297 7.3242-8.5586 1.8125-3.2891 3.293-6.668 3.7852-10.695-3.293 2.4648-5.4336 5.4258-7.3242 8.6367z"/>
  <path d="m175.66 301.87c-3.9492 0.41016-7.4062 1.9727-10.617 3.7852-3.2109 1.8945-6.1719 4.1133-8.6406 7.3242 4.0312-0.49219 7.4062-1.9727 10.699-3.7852 3.125-1.8945 6.1719-4.1133 8.5586-7.3242z"/>
  <path d="m192.62 292.08c4.0312-0.49219 7.4062-1.9727 10.699-3.7852 3.1289-1.8945 6.1719-4.1133 8.5586-7.3242-4.0312 0.49219-7.4062 1.9727-10.617 3.7852-3.2109 1.8945-6.2539 4.1133-8.6406 7.3242z"/>
  <path d="m196.4 279.9c1.8125-3.207 3.293-6.668 3.7852-10.617-3.293 2.3867-5.4297 5.4336-7.3242 8.5586-1.8125 3.293-3.375 6.668-3.7852 10.699 3.2109-2.4688 5.3477-5.4297 7.3242-8.6406z"/>
  <path d="m193.93 296.93c3.7031 1.6445 7.4062 1.9766 11.109 2.0586 3.7031 0 7.4062-0.41406 11.109-2.0586-3.7031-1.5625-7.4062-1.9766-11.109-1.9766-3.7031 0.082031-7.4062 0.41406-11.109 1.9766z"/>
  <path d="m174.43 296.93c-3.7031-1.5625-7.4922-1.9766-11.191-1.9766-3.7031 0.082031-7.4062 0.41016-11.109 1.9766 3.7031 1.6445 7.4062 1.9766 11.109 2.0586 3.6992 0 7.4883-0.41406 11.191-2.0586z"/>
  <path d="m165.05 288.29c3.2109 1.8086 6.668 3.375 10.617 3.7852-2.3867-3.2109-5.4297-5.4297-8.5586-7.3242-3.293-1.8125-6.668-3.293-10.699-3.7852 2.4688 3.207 5.4297 5.4297 8.6406 7.3242z"/>
  <path d="m358.46 265.2c-15.902-57.793-64.289-87.695-121.52-87.695-57.344 0-105.73 29.902-121.63 87.695-18.594 2.6875-33.152 26.77-33.152 56 0 31.023 16.352 56.223 36.625 56.223 0.78516 0 1.5664-0.10938 2.3516-0.10938 19.938 61.152 64.289 112.11 115.81 112.11s95.871-50.961 115.81-112.11c0.78516 0 1.457 0.10938 2.2383 0.10938 10.863 0 20.609-7.2812 27.219-18.703l-48.719 20.496-0.55859-1.1211-17.922 7.6172-21.055-49.391 18.93-3.4727 13.441-3.2461c12.695-4.9609 70.699-4.7578 61.488-25.535l1.9023-0.67188c-4.4883-20.723-16.582-36.066-31.254-38.195zm-174.27 69.441c-20.832 0-37.742-16.91-37.742-37.746 0-20.719 16.91-37.52 37.742-37.52 20.719 0 37.633 16.801 37.633 37.52 0 20.832-16.914 37.746-37.633 37.746zm68.879 36.512h-31.246c-4.2578 0-6.9453-6.832-4.8164-12.434l15.566-39.984c2.1289-5.6016 7.6172-5.6016 9.7422 0l15.566 39.984c2.1328 5.6016-0.55469 12.434-4.8125 12.434zm37.746-36.512c-20.832 0-37.742-16.91-37.742-37.746 0-20.719 16.91-37.52 37.742-37.52 20.719 0 37.52 16.801 37.52 37.52 0 20.832-16.801 37.746-37.52 37.746z"/>
  <path d="m288.67 276.11c0.082031 3.7031 0.49219 7.4062 2.0586 11.109 1.6445-3.7031 1.9766-7.4062 2.0586-11.109-0.082031-3.7031-0.41016-7.4062-2.0586-11.113-1.5625 3.707-1.9727 7.4102-2.0586 11.113z"/>
  <path d="m295.67 305.41c0.41406 4.0312 1.9766 7.4062 3.7852 10.695 1.8906 3.1289 4.0312 6.1719 7.3242 8.5586-0.49219-3.9492-1.9727-7.4062-3.7852-10.617-1.9727-3.207-4.1133-6.168-7.3242-8.6367z"/>
  <path d="m288.67 317.84c0.082031 3.7031 0.49219 7.4062 2.0586 11.109 1.6445-3.7031 1.9766-7.4062 2.0586-11.109-0.082031-3.7031-0.41016-7.4062-2.0586-11.109-1.5625 3.7031-1.9727 7.4062-2.0586 11.109z"/>
  <path d="m300.52 296.93c3.7031 1.6445 7.4062 1.9766 11.109 2.0586 3.7031 0 7.4062-0.41406 11.109-2.0586-3.7031-1.5625-7.4062-1.9766-11.109-1.9766-3.7031 0.082031-7.4062 0.41406-11.109 1.9766z"/>
  <path d="m274.77 269.28c0.41016 3.9492 1.9727 7.4062 3.7852 10.617 1.8945 3.2109 4.0312 6.1719 7.3242 8.6406-0.49219-4.0312-1.9727-7.4062-3.7852-10.699-1.8945-3.125-4.1172-6.1719-7.3242-8.5586z"/>
  <path d="m309.91 305.66c-3.293-1.8125-6.668-3.293-10.699-3.7852 2.3867 3.2109 5.4336 5.4336 8.6406 7.3242 3.2109 1.8125 6.5859 3.293 10.617 3.7852-2.3867-3.2891-5.4297-5.4297-8.5586-7.3242z"/>
  <path d="m271.64 288.29c3.2109 1.8086 6.668 3.375 10.617 3.7852-2.3867-3.2109-5.4297-5.4297-8.5586-7.3242-3.293-1.8125-6.668-3.293-10.699-3.7852 2.4688 3.207 5.4336 5.4297 8.6406 7.3242z"/>
  <path d="m281.02 296.93c-3.7031-1.5625-7.4922-1.9766-11.191-1.9766-3.7031 0.082031-7.4062 0.41016-11.109 1.9766 3.7031 1.6445 7.4062 1.9766 11.109 2.0586 3.7031 0 7.4883-0.41406 11.191-2.0586z"/>
  <path d="m299.21 292.08c4.0312-0.49219 7.4062-1.9727 10.699-3.7852 3.1289-1.8945 6.1719-4.1133 8.5586-7.3242-4.0312 0.49219-7.4062 1.9727-10.617 3.7852-3.207 1.8945-6.2539 4.1133-8.6406 7.3242z"/>
  <path d="m282.25 301.87c-3.9492 0.41016-7.4062 1.9727-10.617 3.7852-3.2109 1.8945-6.1719 4.1133-8.6406 7.3242 4.0312-0.49219 7.4062-1.9727 10.699-3.7852 3.1289-1.8945 6.1719-4.1133 8.5586-7.3242z"/>
  <path d="m278.55 314.05c-1.8086 3.2109-3.375 6.668-3.7852 10.617 3.207-2.3867 5.4297-5.4297 7.3242-8.5586 1.8125-3.2891 3.293-6.668 3.7852-10.695-3.293 2.4648-5.4297 5.4258-7.3242 8.6367z"/>
  <path d="m382.98 330.61-54.656 9.9688 0.33594 0.78516-18.93 3.4727 11.199 26.207 17.246-7.2812 0.55859 1.1211 42.785-18.031c-1.6797-4.4805-1.0078-10.414 6.0469-17.809z"/>
  <path d="m599.7 117.14-28.223 44.352s-18.703 40.32-89.375 94.191c0 0-11.312 3.1367-19.824 12.879-8.3984 9.6328-43.68 36.625-64.848 44.016 0 0-3.5859 16.574 20.047 12.207 23.633-4.2578 41.215-20.273 41.215-20.273s9.2969 9.7422 14 9.7422c0 0-16.91 6.6094-34.832 9.5195-17.922 2.8008-31.586 1.2305-42.895 13.777-3.2461 3.5859-4.7852 6.5664-3.3594 7.5039 0.09375 0.0625 33.793-2.7695 47.152-2.1289 24.633 1.1797 49.504-0.89453 49.504-0.89453s-24.406 4.8477-49.391 6.4961c-11.195 0.73828-22.062 1.1211-30.465 2.8008 13.664 7.0547 50.062 22.176 79.406 4.1445 0 0 24.078 0.55859 28.113-16.238 4.1445-16.801 21.281-54.992 53.09-82.879 31.922-27.887 48.832-52.078 48.832-52.078v-87.137z"/>
  <use x="70" y="728" xlink:href="#l"/>
  <use x="111.097656" y="728" xlink:href="#d"/>
  <use x="138.714844" y="728" xlink:href="#c"/>
  <use x="176.695312" y="728" xlink:href="#h"/>
  <use x="214.484375" y="728" xlink:href="#g"/>
  <use x="241.253906" y="728" xlink:href="#c"/>
  <use x="279.234375" y="728" xlink:href="#f"/>
  <use x="338.816406" y="728" xlink:href="#b"/>
  <use x="378.902344" y="728" xlink:href="#a"/>
  <use x="434.902344" y="728" xlink:href="#e"/>
  <use x="475.945312" y="728" xlink:href="#d"/>
  <use x="503.5625" y="728" xlink:href="#k"/>
  <use x="542.035156" y="728" xlink:href="#j"/>
  <use x="582.367188" y="728" xlink:href="#a"/>
  <use x="618.871094" y="728" xlink:href="#i"/>
  <use x="677.222656" y="728" xlink:href="#b"/>
 </g>
</svg>
